<mxfile host="app.diagrams.net" modified="2022-03-09T09:39:43.588Z" agent="5.0 (Macintosh; Intel Mac OS X 10_14_6) AppleWebKit/537.36 (KHTML, like Gecko) Chrome/92.0.4515.159 Safari/537.36" etag="f-_wHIUHFhWLK6elXcXR" version="16.6.7" type="github">
  <diagram id="8w7QBr1dTlRD07xSRQjS" name="Page-1">
    <mxGraphModel dx="936" dy="520" grid="1" gridSize="10" guides="1" tooltips="1" connect="1" arrows="1" fold="1" page="1" pageScale="1" pageWidth="827" pageHeight="1169" math="0" shadow="0">
      <root>
        <mxCell id="0" />
        <mxCell id="1" parent="0" />
        <mxCell id="kfVYC8PLGXOdOZEAmYdK-3" value="alarm_record_time:事件发生的时间&lt;br&gt;item_id&lt;br&gt;item_name&lt;br&gt;is_p0=1" style="rounded=0;whiteSpace=wrap;html=1;align=left;" vertex="1" parent="1">
          <mxGeometry x="50" y="80" width="370" height="60" as="geometry" />
        </mxCell>
        <mxCell id="kfVYC8PLGXOdOZEAmYdK-4" value="&lt;span&gt;bi_bdp.ads_op_baseline_job_weekreport_event_phone_alarm_a_d&lt;/span&gt;" style="rounded=0;whiteSpace=wrap;html=1;align=left;" vertex="1" parent="1">
          <mxGeometry x="50" y="50" width="370" height="30" as="geometry" />
        </mxCell>
        <mxCell id="kfVYC8PLGXOdOZEAmYdK-6" value="project_id&lt;br&gt;parent_project_id&lt;br&gt;row_1:下游数据&lt;br&gt;row_2:上游数据&lt;br&gt;rel_nums：下游个数&lt;br&gt;parent_project_id：顶层上游&lt;br&gt;max_nums：上游影响最大的个数" style="rounded=0;whiteSpace=wrap;html=1;align=left;" vertex="1" parent="1">
          <mxGeometry x="50" y="230" width="370" height="110" as="geometry" />
        </mxCell>
        <mxCell id="kfVYC8PLGXOdOZEAmYdK-7" value="&lt;span&gt;oldest&lt;/span&gt;" style="rounded=0;whiteSpace=wrap;html=1;align=left;" vertex="1" parent="1">
          <mxGeometry x="50" y="200" width="370" height="30" as="geometry" />
        </mxCell>
        <mxCell id="kfVYC8PLGXOdOZEAmYdK-8" value="alarm_item_parent_rel" style="rounded=0;whiteSpace=wrap;html=1;align=left;" vertex="1" parent="1">
          <mxGeometry x="580" y="140" width="340" height="40" as="geometry" />
        </mxCell>
        <mxCell id="kfVYC8PLGXOdOZEAmYdK-9" value="item_id&lt;br&gt;parent_project_id" style="rounded=0;whiteSpace=wrap;html=1;align=left;" vertex="1" parent="1">
          <mxGeometry x="580" y="180" width="340" height="50" as="geometry" />
        </mxCell>
        <mxCell id="kfVYC8PLGXOdOZEAmYdK-10" value="item_id：告警个数&amp;nbsp; &amp;nbsp; 02-15:108，去重97" style="rounded=0;whiteSpace=wrap;html=1;align=left;" vertex="1" parent="1">
          <mxGeometry x="50" y="140" width="370" height="30" as="geometry" />
        </mxCell>
        <mxCell id="kfVYC8PLGXOdOZEAmYdK-11" value="project_id：项目个数：5000+" style="rounded=0;whiteSpace=wrap;html=1;" vertex="1" parent="1">
          <mxGeometry x="50" y="340" width="370" height="30" as="geometry" />
        </mxCell>
        <mxCell id="kfVYC8PLGXOdOZEAmYdK-12" value="item_id：？？？" style="rounded=0;whiteSpace=wrap;html=1;align=left;" vertex="1" parent="1">
          <mxGeometry x="580" y="230" width="340" height="30" as="geometry" />
        </mxCell>
        <mxCell id="kfVYC8PLGXOdOZEAmYdK-13" value="" style="endArrow=classic;html=1;rounded=0;" edge="1" parent="1">
          <mxGeometry width="50" height="50" relative="1" as="geometry">
            <mxPoint x="420" y="120" as="sourcePoint" />
            <mxPoint x="580" y="180" as="targetPoint" />
            <Array as="points">
              <mxPoint x="510" y="120" />
              <mxPoint x="510" y="180" />
              <mxPoint x="580" y="180" />
            </Array>
          </mxGeometry>
        </mxCell>
        <mxCell id="kfVYC8PLGXOdOZEAmYdK-14" value="" style="endArrow=classic;html=1;rounded=0;entryX=0;entryY=0.25;entryDx=0;entryDy=0;" edge="1" parent="1" target="kfVYC8PLGXOdOZEAmYdK-12">
          <mxGeometry width="50" height="50" relative="1" as="geometry">
            <mxPoint x="420" y="310" as="sourcePoint" />
            <mxPoint x="570" y="200" as="targetPoint" />
            <Array as="points">
              <mxPoint x="510" y="310" />
              <mxPoint x="510" y="238" />
            </Array>
          </mxGeometry>
        </mxCell>
        <mxCell id="kfVYC8PLGXOdOZEAmYdK-15" value="&lt;div style=&quot;text-align: left&quot;&gt;&lt;span&gt;left_join：245&lt;/span&gt;&lt;/div&gt;&lt;div style=&quot;text-align: left&quot;&gt;&lt;span&gt;join：219&lt;/span&gt;&lt;/div&gt;" style="rounded=0;whiteSpace=wrap;html=1;fillColor=#fff2cc;strokeColor=#d6b656;" vertex="1" parent="1">
          <mxGeometry x="490" y="40" width="120" height="60" as="geometry" />
        </mxCell>
        <mxCell id="kfVYC8PLGXOdOZEAmYdK-16" value="为什么left join多，因为基线没有父任务" style="rounded=0;whiteSpace=wrap;html=1;labelBackgroundColor=#FFFFCC;" vertex="1" parent="1">
          <mxGeometry x="670" y="40" width="120" height="60" as="geometry" />
        </mxCell>
        <mxCell id="kfVYC8PLGXOdOZEAmYdK-17" value="" style="shape=flexArrow;endArrow=classic;html=1;rounded=0;entryX=0;entryY=0.5;entryDx=0;entryDy=0;exitX=1;exitY=0.5;exitDx=0;exitDy=0;" edge="1" parent="1" source="kfVYC8PLGXOdOZEAmYdK-15" target="kfVYC8PLGXOdOZEAmYdK-16">
          <mxGeometry width="50" height="50" relative="1" as="geometry">
            <mxPoint x="610" y="100" as="sourcePoint" />
            <mxPoint x="660" y="50" as="targetPoint" />
          </mxGeometry>
        </mxCell>
      </root>
    </mxGraphModel>
  </diagram>
</mxfile>
